<svg width="192" height="101" viewBox="0 0 192 101" fill="none" xmlns="http://www.w3.org/2000/svg">
<path d="M1.00262e-08 7.97985V-2.96093e-06H3.74811V7.97985H1.00262e-08ZM3.62484 7.97985V-2.96093e-06H7.37295V7.97985H3.62484ZM7.24969 7.97985V-2.96093e-06H10.9978V7.97985H7.24969ZM10.8745 7.97985V-2.96093e-06H14.6226V7.97985H10.8745ZM14.4994 7.97985V-2.96093e-06H18.2475V7.97985H14.4994ZM18.1242 7.97985V-2.96093e-06H21.8723V7.97985H18.1242ZM23.9254 7.97985V3.6272H21.6886V3.02267H24.5299V7.97985H23.9254ZM22.7163 7.97985V4.83627H21.6886V4.23174H23.3208V7.97985H22.7163ZM28.9987 7.97985V-2.96093e-06H32.7469V7.97985H28.9987ZM32.6236 7.97985V-2.96093e-06H36.3717V7.97985H32.6236ZM36.2484 7.97985V-2.96093e-06H39.9965V7.97985H36.2484ZM39.8733 7.97985V-2.96093e-06H43.6214V7.97985H39.8733ZM43.4981 7.97985V-2.96093e-06H47.2462V7.97985H43.4981ZM47.123 7.97985V-2.96093e-06H50.8711V7.97985H47.123ZM50.7478 7.97985V-2.96093e-06H54.4959V7.97985H50.7478ZM56.549 7.97985V3.6272H54.3122V3.02267H57.1535V7.97985H56.549ZM55.3399 7.97985V4.83627H54.3122V4.23174H55.9444V7.97985H55.3399ZM57.9975 7.97985V-2.96093e-06H61.7456V7.97985H57.9975ZM61.6223 7.97985V-2.96093e-06H65.3704V7.97985H61.6223ZM67.4235 7.97985V3.6272H65.1867V3.02267H68.028V7.97985H67.4235ZM66.2144 7.97985V4.83627H65.1867V4.23174H66.819V7.97985H66.2144ZM79.7465 7.97985V-2.96093e-06H83.4946V7.97985H79.7465ZM83.3714 7.97985V-2.96093e-06H87.1195V7.97985H83.3714ZM89.1725 7.97985V3.6272H86.9358V3.02267H89.7771V7.97985H89.1725ZM87.9635 7.97985V4.83627H86.9358V4.23174H88.568V7.97985H87.9635ZM94.2459 7.97985V-2.96093e-06H97.994V7.97985H94.2459ZM97.8708 7.97985V-2.96093e-06H101.619V7.97985H97.8708ZM101.496 7.97985V-2.96093e-06H105.244V7.97985H101.496ZM105.12 7.97985V-2.96093e-06H108.869V7.97985H105.12ZM108.745 7.97985V-2.96093e-06H112.493V7.97985H108.745ZM112.37 7.97985V-2.96093e-06H116.118V7.97985H112.37ZM118.171 7.97985V3.6272H115.935V3.02267H118.776V7.97985H118.171ZM116.962 7.97985V4.83627H115.935V4.23174H117.567V7.97985H116.962ZM123.245 7.97985V-2.96093e-06H126.993V7.97985H123.245ZM126.869 7.97985V-2.96093e-06H130.618V7.97985H126.869ZM130.494 7.97985V-2.96093e-06H134.242V7.97985H130.494ZM136.295 7.97985V3.6272H134.059V3.02267H136.9V7.97985H136.295ZM135.086 7.97985V4.83627H134.059V4.23174H135.691V7.97985H135.086ZM148.619 7.97985V-2.96093e-06H152.367V7.97985H148.619ZM152.243 7.97985V-2.96093e-06H155.992V7.97985H152.243ZM158.045 7.97985V3.6272H155.808V3.02267H158.649V7.97985H158.045ZM156.835 7.97985V4.83627H155.808V4.23174H157.44V7.97985H156.835ZM159.493 7.97985V-2.96093e-06H163.241V7.97985H159.493ZM163.118 7.97985V-2.96093e-06H166.866V7.97985H163.118ZM166.743 7.97985V-2.96093e-06H170.491V7.97985H166.743ZM170.368 7.97985V-2.96093e-06H174.116V7.97985H170.368ZM173.992 7.97985V-2.96093e-06H177.741V7.97985H173.992ZM177.617 7.97985V-2.96093e-06H181.365V7.97985H177.617ZM183.418 7.97985V3.6272H181.182V3.02267H184.023V7.97985H183.418ZM182.209 7.97985V4.83627H181.182V4.23174H182.814V7.97985H182.209ZM3.62484 15.9798V8H7.37295V15.9798H3.62484ZM7.24969 15.9798V8H10.9978V15.9798H7.24969ZM11.8418 15.9798V11.0227H14.6831V11.6272H12.4463V15.9798H11.8418ZM13.0509 15.9798V12.2317H14.6831V12.8363H13.6554V15.9798H13.0509ZM14.4389 11.6272V11.0227H18.3079V11.6272H14.4389ZM14.4389 12.8363V12.2317H18.3079V12.8363H14.4389ZM18.0638 11.6272V11.0227H21.9328V11.6272H18.0638ZM18.0638 12.8363V12.2317H21.9328V12.8363H18.0638ZM21.7491 15.9798V8H25.4972V15.9798H21.7491ZM25.3739 15.9798V8H29.122V15.9798H25.3739ZM31.1751 15.9798V11.6272H28.9383V11.0227H31.7796V15.9798H31.1751ZM29.966 15.9798V12.8363H28.9383V12.2317H30.5705V15.9798H29.966ZM32.6236 15.9798V8H36.3717V15.9798H32.6236ZM36.2484 15.9798V8H39.9965V15.9798H36.2484ZM40.8405 15.9798V11.0227H43.6818V11.6272H41.4451V15.9798H40.8405ZM42.0496 15.9798V12.2317H43.6818V12.8363H42.6541V15.9798H42.0496ZM43.4377 11.6272V11.0227H47.3067V11.6272H43.4377ZM43.4377 12.8363V12.2317H47.3067V12.8363H43.4377ZM47.0625 11.6272V11.0227H50.9315V11.6272H47.0625ZM47.0625 12.8363V12.2317H50.9315V12.8363H47.0625ZM50.6873 11.6272V11.0227H54.5564V11.6272H50.6873ZM50.6873 12.8363V12.2317H54.5564V12.8363H50.6873ZM54.3122 11.6272V11.0227H58.1812V11.6272H54.3122ZM54.3122 12.8363V12.2317H58.1812V12.8363H54.3122ZM57.937 12.8363V12.2317H60.1738V8H60.7783V12.8363H57.937ZM57.937 11.6272V11.0227H58.9647V8H59.5693V11.6272H57.937ZM62.5896 12.8363V8H63.1941V12.2317H65.4309V12.8363H62.5896ZM63.7986 11.6272V8H64.4032V11.0227H65.4309V11.6272H63.7986ZM65.2472 15.9798V8H68.9953V15.9798H65.2472ZM68.872 15.9798V8H72.6201V15.9798H68.872ZM74.6732 15.9798V11.6272H72.4364V11.0227H75.2777V15.9798H74.6732ZM73.4641 15.9798V12.8363H72.4364V12.2317H74.0686V15.9798H73.4641ZM79.7465 15.9798V8H83.4946V15.9798H79.7465ZM83.3714 15.9798V8H87.1195V15.9798H83.3714ZM87.9635 15.9798V11.0227H90.8048V11.6272H88.568V15.9798H87.9635ZM89.1725 15.9798V12.2317H90.8048V12.8363H89.7771V15.9798H89.1725ZM90.5606 12.8363V12.2317H92.7974V8H93.4019V12.8363H90.5606ZM90.5606 11.6272V11.0227H91.5883V8H92.1929V11.6272H90.5606ZM94.2459 15.9798V8H97.994V15.9798H94.2459ZM97.8708 15.9798V8H101.619V15.9798H97.8708ZM102.463 15.9798V11.0227H105.304V11.6272H103.067V15.9798H102.463ZM103.672 15.9798V12.2317H105.304V12.8363H104.276V15.9798H103.672ZM105.06 11.6272V11.0227H108.929V11.6272H105.06ZM105.06 12.8363V12.2317H108.929V12.8363H105.06ZM108.685 11.6272V11.0227H112.554V11.6272H108.685ZM108.685 12.8363V12.2317H112.554V12.8363H108.685ZM112.31 11.6272V11.0227H116.179V11.6272H112.31ZM112.31 12.8363V12.2317H116.179V12.8363H112.31ZM115.995 15.9798V8H119.743V15.9798H115.995ZM119.62 15.9798V8H123.368V15.9798H119.62ZM125.421 15.9798V11.6272H123.184V11.0227H126.026V15.9798H125.421ZM124.212 15.9798V12.8363H123.184V12.2317H124.816V15.9798H124.212ZM126.869 15.9798V8H130.618V15.9798H126.869ZM130.494 15.9798V8H134.242V15.9798H130.494ZM134.119 15.9798V8H137.867V15.9798H134.119ZM137.744 15.9798V8H141.492V15.9798H137.744ZM143.545 15.9798V11.6272H141.308V11.0227H144.15V15.9798H143.545ZM142.336 15.9798V12.8363H141.308V12.2317H142.941V15.9798H142.336ZM152.243 15.9798V8H155.992V15.9798H152.243ZM155.868 15.9798V8H159.616V15.9798H155.868ZM161.669 15.9798V8H162.274V15.9798H161.669ZM160.46 15.9798V8H161.065V15.9798H160.46ZM163.118 15.9798V8H166.866V15.9798H163.118ZM166.743 15.9798V8H170.491V15.9798H166.743ZM171.335 15.9798V11.0227H174.176V11.6272H171.939V15.9798H171.335ZM172.544 15.9798V12.2317H174.176V12.8363H173.148V15.9798H172.544ZM173.932 11.6272V11.0227H177.801V11.6272H173.932ZM173.932 12.8363V12.2317H177.801V12.8363H173.932ZM177.557 11.6272V11.0227H181.426V11.6272H177.557ZM177.557 12.8363V12.2317H181.426V12.8363H177.557ZM181.242 15.9798V8H184.99V15.9798H181.242ZM184.867 15.9798V8H188.615V15.9798H184.867ZM190.668 15.9798V11.6272H188.431V11.0227H191.273V15.9798H190.668ZM189.459 15.9798V12.8363H188.431V12.2317H190.064V15.9798H189.459ZM3.62484 23.9798V16H7.37295V23.9798H3.62484ZM7.24969 23.9798V16H10.9978V23.9798H7.24969ZM10.8745 23.9798V16H14.6226V23.9798H10.8745ZM14.4994 23.9798V16H18.2475V23.9798H14.4994ZM18.1242 23.9798V16H21.8723V23.9798H18.1242ZM21.7491 23.9798V16H25.4972V23.9798H21.7491ZM26.3412 23.9798V19.0227H29.1825V19.6272H26.9457V23.9798H26.3412ZM27.5502 23.9798V20.2317H29.1825V20.8363H28.1548V23.9798H27.5502ZM28.9383 20.8363V20.2317H31.1751V16H31.7796V20.8363H28.9383ZM28.9383 19.6272V19.0227H29.966V16H30.5705V19.6272H28.9383ZM32.6236 23.9798V16H36.3717V23.9798H32.6236ZM36.2484 23.9798V16H39.9965V23.9798H36.2484ZM39.8733 23.9798V16H43.6214V23.9798H39.8733ZM43.4981 23.9798V16H47.2462V23.9798H43.4981ZM47.123 23.9798V16H50.8711V23.9798H47.123ZM52.9241 23.9798V19.6272H50.6873V19.0227H53.5287V23.9798H52.9241ZM51.715 23.9798V20.8363H50.6873V20.2317H52.3196V23.9798H51.715ZM66.2144 20.8363V16H66.819V20.2317H69.0557V20.8363H66.2144ZM67.4235 19.6272V16H68.028V19.0227H69.0557V19.6272H67.4235ZM68.872 23.9798V16H72.6201V23.9798H68.872ZM72.4969 23.9798V16H76.245V23.9798H72.4969ZM76.1217 23.9798V16H79.8698V23.9798H76.1217ZM79.7465 23.9798V16H83.4946V23.9798H79.7465ZM84.3386 23.9798V19.0227H87.1799V19.6272H84.9432V23.9798H84.3386ZM85.5477 23.9798V20.2317H87.1799V20.8363H86.1522V23.9798H85.5477ZM86.9358 20.8363V20.2317H89.1725V16H89.7771V20.8363H86.9358ZM86.9358 19.6272V19.0227H87.9635V16H88.568V19.6272H86.9358ZM94.2459 23.9798V16H97.994V23.9798H94.2459ZM97.8708 23.9798V16H101.619V23.9798H97.8708ZM103.672 23.9798V16H104.276V23.9798H103.672ZM102.463 23.9798V16H103.067V23.9798H102.463ZM115.995 23.9798V16H119.743V23.9798H115.995ZM119.62 23.9798V16H123.368V23.9798H119.62ZM125.421 23.9798V16H126.026V23.9798H125.421ZM124.212 23.9798V16H124.816V23.9798H124.212ZM126.869 23.9798V16H130.618V23.9798H126.869ZM130.494 23.9798V16H134.242V23.9798H130.494ZM135.086 23.9798V19.0227H137.928V19.6272H135.691V23.9798H135.086ZM136.295 23.9798V20.2317H137.928V20.8363H136.9V23.9798H136.295ZM137.744 23.9798V16H141.492V23.9798H137.744ZM141.369 23.9798V16H145.117V23.9798H141.369ZM147.17 23.9798V19.6272H144.933V19.0227H147.775V23.9798H147.17ZM145.961 23.9798V20.8363H144.933V20.2317H146.566V23.9798H145.961ZM152.243 23.9798V16H155.992V23.9798H152.243ZM155.868 23.9798V16H159.616V23.9798H155.868ZM161.669 23.9798V16H162.274V23.9798H161.669ZM160.46 23.9798V16H161.065V23.9798H160.46ZM163.118 23.9798V16H166.866V23.9798H163.118ZM166.743 23.9798V16H170.491V23.9798H166.743ZM172.544 23.9798V16H173.148V23.9798H172.544ZM171.335 23.9798V16H171.939V23.9798H171.335ZM181.242 23.9798V16H184.99V23.9798H181.242ZM184.867 23.9798V16H188.615V23.9798H184.867ZM190.668 23.9798V16H191.273V23.9798H190.668ZM189.459 23.9798V16H190.064V23.9798H189.459ZM3.62484 31.9798V24H7.37295V31.9798H3.62484ZM7.24969 31.9798V24H10.9978V31.9798H7.24969ZM11.8418 31.9798V27.0227H14.6831V27.6272H12.4463V31.9798H11.8418ZM13.0509 31.9798V28.2317H14.6831V28.8363H13.6554V31.9798H13.0509ZM14.4389 27.6272V27.0227H18.3079V27.6272H14.4389ZM14.4389 28.8363V28.2317H18.3079V28.8363H14.4389ZM18.0638 27.6272V27.0227H21.9328V27.6272H18.0638ZM18.0638 28.8363V28.2317H21.9328V28.8363H18.0638ZM21.7491 31.9798V24H25.4972V31.9798H21.7491ZM25.3739 31.9798V24H29.122V31.9798H25.3739ZM31.1751 31.9798V27.6272H28.9383V27.0227H31.7796V31.9798H31.1751ZM29.966 31.9798V28.8363H28.9383V28.2317H30.5705V31.9798H29.966ZM32.6236 31.9798V24H36.3717V31.9798H32.6236ZM36.2484 31.9798V24H39.9965V31.9798H36.2484ZM40.8405 31.9798V27.0227H43.6818V27.6272H41.4451V31.9798H40.8405ZM42.0496 31.9798V28.2317H43.6818V28.8363H42.6541V31.9798H42.0496ZM43.4377 27.6272V27.0227H47.3067V27.6272H43.4377ZM43.4377 28.8363V28.2317H47.3067V28.8363H43.4377ZM47.0625 27.6272V27.0227H50.9315V27.6272H47.0625ZM47.0625 28.8363V28.2317H50.9315V28.8363H47.0625ZM50.6873 28.8363V28.2317H52.9241V24H53.5287V28.8363H50.6873ZM50.6873 27.6272V27.0227H51.715V24H52.3196V27.6272H50.6873ZM69.8393 28.8363V24H70.4438V28.2317H72.6806V28.8363H69.8393ZM71.0483 27.6272V24H71.6529V27.0227H72.6806V27.6272H71.0483ZM72.4969 31.9798V24H76.245V31.9798H72.4969ZM76.1217 31.9798V24H79.8698V31.9798H76.1217ZM80.7138 31.9798V27.0227H83.5551V27.6272H81.3183V31.9798H80.7138ZM81.9229 31.9798V28.2317H83.5551V28.8363H82.5274V31.9798H81.9229ZM83.3109 28.8363V28.2317H85.5477V24H86.1522V28.8363H83.3109ZM83.3109 27.6272V27.0227H84.3386V24H84.9432V27.6272H83.3109ZM94.2459 31.9798V24H97.994V31.9798H94.2459ZM97.8708 31.9798V24H101.619V31.9798H97.8708ZM103.672 31.9798V24H104.276V31.9798H103.672ZM102.463 31.9798V24H103.067V31.9798H102.463ZM115.995 31.9798V24H119.743V31.9798H115.995ZM119.62 31.9798V24H123.368V31.9798H119.62ZM125.421 31.9798V24H126.026V31.9798H125.421ZM124.212 31.9798V24H124.816V31.9798H124.212ZM126.869 31.9798V24H130.618V31.9798H126.869ZM130.494 31.9798V24H134.242V31.9798H130.494ZM136.295 31.9798V24H136.9V31.9798H136.295ZM135.086 31.9798V24H135.691V31.9798H135.086ZM138.711 28.8363V24H139.316V28.2317H141.553V28.8363H138.711ZM139.92 27.6272V24H140.525V27.0227H141.553V27.6272H139.92ZM141.369 31.9798V24H145.117V31.9798H141.369ZM144.994 31.9798V24H148.742V31.9798H144.994ZM150.795 31.9798V27.6272H148.558V27.0227H151.399V31.9798H150.795ZM149.586 31.9798V28.8363H148.558V28.2317H150.19V31.9798H149.586ZM152.243 31.9798V24H155.992V31.9798H152.243ZM155.868 31.9798V24H159.616V31.9798H155.868ZM161.669 31.9798V24H162.274V31.9798H161.669ZM160.46 31.9798V24H161.065V31.9798H160.46ZM163.118 31.9798V24H166.866V31.9798H163.118ZM166.743 31.9798V24H170.491V31.9798H166.743ZM172.544 31.9798V24H173.148V31.9798H172.544ZM171.335 31.9798V24H171.939V31.9798H171.335ZM181.242 31.9798V24H184.99V31.9798H181.242ZM184.867 31.9798V24H188.615V31.9798H184.867ZM190.668 31.9798V24H191.273V31.9798H190.668ZM189.459 31.9798V24H190.064V31.9798H189.459ZM3.62484 39.9798V32H7.37295V39.9798H3.62484ZM7.24969 39.9798V32H10.9978V39.9798H7.24969ZM10.8745 39.9798V32H14.6226V39.9798H10.8745ZM14.4994 39.9798V32H18.2475V39.9798H14.4994ZM18.1242 39.9798V32H21.8723V39.9798H18.1242ZM21.7491 39.9798V32H25.4972V39.9798H21.7491ZM26.3412 39.9798V35.0227H29.1825V35.6272H26.9457V39.9798H26.3412ZM27.5502 39.9798V36.2317H29.1825V36.8363H28.1548V39.9798H27.5502ZM28.9383 36.8363V36.2317H31.1751V32H31.7796V36.8363H28.9383ZM28.9383 35.6272V35.0227H29.966V32H30.5705V35.6272H28.9383ZM32.6236 39.9798V32H36.3717V39.9798H32.6236ZM36.2484 39.9798V32H39.9965V39.9798H36.2484ZM39.8733 39.9798V32H43.6214V39.9798H39.8733ZM43.4981 39.9798V32H47.2462V39.9798H43.4981ZM47.123 39.9798V32H50.8711V39.9798H47.123ZM50.7478 39.9798V32H54.4959V39.9798H50.7478ZM54.3726 39.9798V32H58.1207V39.9798H54.3726ZM60.1738 39.9798V35.6272H57.937V35.0227H60.7783V39.9798H60.1738ZM58.9647 39.9798V36.8363H57.937V36.2317H59.5693V39.9798H58.9647ZM72.4969 39.9798V32H76.245V39.9798H72.4969ZM76.1217 39.9798V32H79.8698V39.9798H76.1217ZM81.9229 39.9798V32H82.5274V39.9798H81.9229ZM80.7138 39.9798V32H81.3183V39.9798H80.7138ZM95.2132 36.8363V32H95.8177V36.2317H98.0545V36.8363H95.2132ZM96.4222 35.6272V32H97.0268V35.0227H98.0545V35.6272H96.4222ZM97.8708 39.9798V32H101.619V39.9798H97.8708ZM101.496 39.9798V32H105.244V39.9798H101.496ZM105.12 39.9798V32H108.869V39.9798H105.12ZM108.745 39.9798V32H112.493V39.9798H108.745ZM112.37 39.9798V32H116.118V39.9798H112.37ZM115.995 39.9798V32H119.743V39.9798H115.995ZM120.587 39.9798V35.0227H123.428V35.6272H121.192V39.9798H120.587ZM121.796 39.9798V36.2317H123.428V36.8363H122.401V39.9798H121.796ZM123.184 36.8363V36.2317H125.421V32H126.026V36.8363H123.184ZM123.184 35.6272V35.0227H124.212V32H124.816V35.6272H123.184ZM126.869 39.9798V32H130.618V39.9798H126.869ZM130.494 39.9798V32H134.242V39.9798H130.494ZM136.295 39.9798V32H136.9V39.9798H136.295ZM135.086 39.9798V32H135.691V39.9798H135.086ZM142.336 36.8363V32H142.941V36.2317H145.177V36.8363H142.336ZM143.545 35.6272V32H144.15V35.0227H145.177V35.6272H143.545ZM144.994 39.9798V32H148.742V39.9798H144.994ZM148.619 39.9798V32H152.367V39.9798H148.619ZM152.243 39.9798V32H155.992V39.9798H152.243ZM155.868 39.9798V32H159.616V39.9798H155.868ZM161.669 39.9798V32H162.274V39.9798H161.669ZM160.46 39.9798V32H161.065V39.9798H160.46ZM163.118 39.9798V32H166.866V39.9798H163.118ZM166.743 39.9798V32H170.491V39.9798H166.743ZM170.368 39.9798V32H174.116V39.9798H170.368ZM173.992 39.9798V32H177.741V39.9798H173.992ZM177.617 39.9798V32H181.365V39.9798H177.617ZM181.242 39.9798V32H184.99V39.9798H181.242ZM185.834 39.9798V35.0227H188.676V35.6272H186.439V39.9798H185.834ZM187.043 39.9798V36.2317H188.676V36.8363H187.648V39.9798H187.043ZM188.431 36.8363V36.2317H190.668V32H191.273V36.8363H188.431ZM188.431 35.6272V35.0227H189.459V32H190.064V35.6272H188.431ZM4.5921 44.8363V40H5.19663V44.2317H7.43341V44.8363H4.5921ZM5.80117 43.6272V40H6.4057V43.0227H7.43341V43.6272H5.80117ZM7.18923 43.6272V43.0227H11.0582V43.6272H7.18923ZM7.18923 44.8363V44.2317H11.0582V44.8363H7.18923ZM10.8141 43.6272V43.0227H14.6831V43.6272H10.8141ZM10.8141 44.8363V44.2317H14.6831V44.8363H10.8141ZM14.4389 43.6272V43.0227H18.3079V43.6272H14.4389ZM14.4389 44.8363V44.2317H18.3079V44.8363H14.4389ZM18.0638 43.6272V43.0227H21.9328V43.6272H18.0638ZM18.0638 44.8363V44.2317H21.9328V44.8363H18.0638ZM21.6886 43.6272V43.0227H25.5576V43.6272H21.6886ZM21.6886 44.8363V44.2317H25.5576V44.8363H21.6886ZM25.3134 44.8363V44.2317H27.5502V40H28.1548V44.8363H25.3134ZM25.3134 43.6272V43.0227H26.3412V40H26.9457V43.6272H25.3134ZM33.5908 44.8363V40H34.1954V44.2317H36.4321V44.8363H33.5908ZM34.7999 43.6272V40H35.4044V43.0227H36.4321V43.6272H34.7999ZM36.188 43.6272V43.0227H40.057V43.6272H36.188ZM36.188 44.8363V44.2317H40.057V44.8363H36.188ZM39.8128 43.6272V43.0227H43.6818V43.6272H39.8128ZM39.8128 44.8363V44.2317H43.6818V44.8363H39.8128ZM43.4377 43.6272V43.0227H47.3067V43.6272H43.4377ZM43.4377 44.8363V44.2317H47.3067V44.8363H43.4377ZM47.0625 43.6272V43.0227H50.9315V43.6272H47.0625ZM47.0625 44.8363V44.2317H50.9315V44.8363H47.0625ZM50.6873 43.6272V43.0227H54.5564V43.6272H50.6873ZM50.6873 44.8363V44.2317H54.5564V44.8363H50.6873ZM54.3122 43.6272V43.0227H58.1812V43.6272H54.3122ZM54.3122 44.8363V44.2317H58.1812V44.8363H54.3122ZM57.937 44.8363V44.2317H60.1738V40H60.7783V44.8363H57.937ZM57.937 43.6272V43.0227H58.9647V40H59.5693V43.6272H57.937ZM73.4641 44.8363V40H74.0686V44.2317H76.3054V44.8363H73.4641ZM74.6732 43.6272V40H75.2777V43.0227H76.3054V43.6272H74.6732ZM76.0612 43.6272V43.0227H79.9303V43.6272H76.0612ZM76.0612 44.8363V44.2317H79.9303V44.8363H76.0612ZM79.6861 44.8363V44.2317H81.9229V40H82.5274V44.8363H79.6861ZM79.6861 43.6272V43.0227H80.7138V40H81.3183V43.6272H79.6861ZM98.838 44.8363V40H99.4425V44.2317H101.679V44.8363H98.838ZM100.047 43.6272V40H100.652V43.0227H101.679V43.6272H100.047ZM101.435 43.6272V43.0227H105.304V43.6272H101.435ZM101.435 44.8363V44.2317H105.304V44.8363H101.435ZM105.06 43.6272V43.0227H108.929V43.6272H105.06ZM105.06 44.8363V44.2317H108.929V44.8363H105.06ZM108.685 43.6272V43.0227H112.554V43.6272H108.685ZM108.685 44.8363V44.2317H112.554V44.8363H108.685ZM112.31 43.6272V43.0227H116.179V43.6272H112.31ZM112.31 44.8363V44.2317H116.179V44.8363H112.31ZM115.935 43.6272V43.0227H119.804V43.6272H115.935ZM115.935 44.8363V44.2317H119.804V44.8363H115.935ZM119.559 44.8363V44.2317H121.796V40H122.401V44.8363H119.559ZM119.559 43.6272V43.0227H120.587V40H121.192V43.6272H119.559ZM127.837 44.8363V40H128.441V44.2317H130.678V44.8363H127.837ZM129.046 43.6272V40H129.65V43.0227H130.678V43.6272H129.046ZM130.434 43.6272V43.0227H134.303V43.6272H130.434ZM130.434 44.8363V44.2317H134.303V44.8363H130.434ZM134.059 44.8363V44.2317H136.295V40H136.9V44.8363H134.059ZM134.059 43.6272V43.0227H135.086V40H135.691V43.6272H134.059ZM145.961 44.8363V40H146.566V44.2317H148.802V44.8363H145.961ZM147.17 43.6272V40H147.775V43.0227H148.802V43.6272H147.17ZM148.558 43.6272V43.0227H152.427V43.6272H148.558ZM148.558 44.8363V44.2317H152.427V44.8363H148.558ZM152.183 43.6272V43.0227H156.052V43.6272H152.183ZM152.183 44.8363V44.2317H156.052V44.8363H152.183ZM155.808 43.6272V43.0227H159.677V43.6272H155.808ZM155.808 44.8363V44.2317H159.677V44.8363H155.808ZM159.433 44.8363V44.2317H161.669V40H162.274V44.8363H159.433ZM159.433 43.6272V43.0227H160.46V40H161.065V43.6272H159.433ZM164.085 44.8363V40H164.69V44.2317H166.926V44.8363H164.085ZM165.294 43.6272V40H165.899V43.0227H166.926V43.6272H165.294ZM166.682 43.6272V43.0227H170.551V43.6272H166.682ZM166.682 44.8363V44.2317H170.551V44.8363H166.682ZM170.307 43.6272V43.0227H174.176V43.6272H170.307ZM170.307 44.8363V44.2317H174.176V44.8363H170.307ZM173.932 43.6272V43.0227H177.801V43.6272H173.932ZM173.932 44.8363V44.2317H177.801V44.8363H173.932ZM177.557 43.6272V43.0227H181.426V43.6272H177.557ZM177.557 44.8363V44.2317H181.426V44.8363H177.557ZM181.182 43.6272V43.0227H185.051V43.6272H181.182ZM181.182 44.8363V44.2317H185.051V44.8363H181.182ZM184.807 44.8363V44.2317H187.043V40H187.648V44.8363H184.807ZM184.807 43.6272V43.0227H185.834V40H186.439V43.6272H184.807Z" fill="#8BFF00"/>
<path d="M21.7491 63.9798V56H25.4972V63.9798H21.7491ZM25.3739 63.9798V56H29.122V63.9798H25.3739ZM28.9987 63.9798V56H32.7469V63.9798H28.9987ZM32.6236 63.9798V56H36.3717V63.9798H32.6236ZM36.2484 63.9798V56H39.9965V63.9798H36.2484ZM39.8733 63.9798V56H43.6214V63.9798H39.8733ZM43.4981 63.9798V56H47.2462V63.9798H43.4981ZM49.2993 63.9798V59.6272H47.0625V59.0227H49.9038V63.9798H49.2993ZM48.0902 63.9798V60.8363H47.0625V60.2317H48.6947V63.9798H48.0902ZM50.7478 63.9798V56H54.4959V63.9798H50.7478ZM54.3726 63.9798V56H58.1207V63.9798H54.3726ZM57.9975 63.9798V56H61.7456V63.9798H57.9975ZM61.6223 63.9798V56H65.3704V63.9798H61.6223ZM65.2472 63.9798V56H68.9953V63.9798H65.2472ZM68.872 63.9798V56H72.6201V63.9798H68.872ZM72.4969 63.9798V56H76.245V63.9798H72.4969ZM78.298 63.9798V59.6272H76.0612V59.0227H78.9026V63.9798H78.298ZM77.089 63.9798V60.8363H76.0612V60.2317H77.6935V63.9798H77.089ZM79.7465 63.9798V56H83.4946V63.9798H79.7465ZM83.3714 63.9798V56H87.1195V63.9798H83.3714ZM86.9962 63.9798V56H90.7443V63.9798H86.9962ZM92.7974 63.9798V59.6272H90.5606V59.0227H93.4019V63.9798H92.7974ZM91.5883 63.9798V60.8363H90.5606V60.2317H92.1929V63.9798H91.5883ZM105.12 63.9798V56H108.869V63.9798H105.12ZM108.745 63.9798V56H112.493V63.9798H108.745ZM114.546 63.9798V59.6272H112.31V59.0227H115.151V63.9798H114.546ZM113.337 63.9798V60.8363H112.31V60.2317H113.942V63.9798H113.337ZM115.995 63.9798V56H119.743V63.9798H115.995ZM119.62 63.9798V56H123.368V63.9798H119.62ZM125.421 63.9798V59.6272H123.184V59.0227H126.026V63.9798H125.421ZM124.212 63.9798V60.8363H123.184V60.2317H124.816V63.9798H124.212ZM126.869 63.9798V56H130.618V63.9798H126.869ZM130.494 63.9798V56H134.242V63.9798H130.494ZM134.119 63.9798V56H137.867V63.9798H134.119ZM137.744 63.9798V56H141.492V63.9798H137.744ZM141.369 63.9798V56H145.117V63.9798H141.369ZM144.994 63.9798V56H148.742V63.9798H144.994ZM148.619 63.9798V56H152.367V63.9798H148.619ZM152.243 63.9798V56H155.992V63.9798H152.243ZM158.045 63.9798V59.6272H155.808V59.0227H158.649V63.9798H158.045ZM156.835 63.9798V60.8363H155.808V60.2317H157.44V63.9798H156.835ZM159.493 63.9798V56H163.241V63.9798H159.493ZM163.118 63.9798V56H166.866V63.9798H163.118ZM168.919 63.9798V59.6272H166.682V59.0227H169.524V63.9798H168.919ZM167.71 63.9798V60.8363H166.682V60.2317H168.315V63.9798H167.71ZM177.617 63.9798V56H181.365V63.9798H177.617ZM181.242 63.9798V56H184.99V63.9798H181.242ZM187.043 63.9798V59.6272H184.807V59.0227H187.648V63.9798H187.043ZM185.834 63.9798V60.8363H184.807V60.2317H186.439V63.9798H185.834ZM22.7163 68.8363V64H23.3208V68.2317H25.5576V68.8363H22.7163ZM23.9254 67.6272V64H24.5299V67.0227H25.5576V67.6272H23.9254ZM25.3134 67.6272V67.0227H29.1825V67.6272H25.3134ZM25.3134 68.8363V68.2317H29.1825V68.8363H25.3134ZM28.9383 67.6272V67.0227H32.8073V67.6272H28.9383ZM28.9383 68.8363V68.2317H32.8073V68.8363H28.9383ZM32.6236 71.9798V64H36.3717V71.9798H32.6236ZM36.2484 71.9798V64H39.9965V71.9798H36.2484ZM39.8733 71.9798V64H43.6214V71.9798H39.8733ZM44.4654 71.9798V67.0227H47.3067V67.6272H45.0699V71.9798H44.4654ZM45.6744 71.9798V68.2317H47.3067V68.8363H46.279V71.9798H45.6744ZM47.0625 68.8363V68.2317H49.2993V64H49.9038V68.8363H47.0625ZM47.0625 67.6272V67.0227H48.0902V64H48.6947V67.6272H47.0625ZM50.7478 71.9798V64H54.4959V71.9798H50.7478ZM54.3726 71.9798V64H58.1207V71.9798H54.3726ZM58.9647 71.9798V67.0227H61.806V67.6272H59.5693V71.9798H58.9647ZM60.1738 71.9798V68.2317H61.806V68.8363H60.7783V71.9798H60.1738ZM61.5619 67.6272V67.0227H65.4309V67.6272H61.5619ZM61.5619 68.8363V68.2317H65.4309V68.8363H61.5619ZM65.1867 67.6272V67.0227H69.0557V67.6272H65.1867ZM65.1867 68.8363V68.2317H69.0557V68.8363H65.1867ZM68.8116 67.6272V67.0227H72.6806V67.6272H68.8116ZM68.8116 68.8363V68.2317H72.6806V68.8363H68.8116ZM72.4364 67.6272V67.0227H76.3054V67.6272H72.4364ZM72.4364 68.8363V68.2317H76.3054V68.8363H72.4364ZM76.0612 68.8363V68.2317H78.298V64H78.9026V68.8363H76.0612ZM76.0612 67.6272V67.0227H77.089V64H77.6935V67.6272H76.0612ZM79.7465 71.9798V64H83.4946V71.9798H79.7465ZM83.3714 71.9798V64H87.1195V71.9798H83.3714ZM86.9962 71.9798V64H90.7443V71.9798H86.9962ZM90.6211 71.9798V64H94.3692V71.9798H90.6211ZM96.4222 71.9798V67.6272H94.1855V67.0227H97.0268V71.9798H96.4222ZM95.2132 71.9798V68.8363H94.1855V68.2317H95.8177V71.9798H95.2132ZM105.12 71.9798V64H108.869V71.9798H105.12ZM108.745 71.9798V64H112.493V71.9798H108.745ZM114.546 71.9798V64H115.151V71.9798H114.546ZM113.337 71.9798V64H113.942V71.9798H113.337ZM115.995 71.9798V64H119.743V71.9798H115.995ZM119.62 71.9798V64H123.368V71.9798H119.62ZM125.421 71.9798V64H126.026V71.9798H125.421ZM124.212 71.9798V64H124.816V71.9798H124.212ZM127.837 68.8363V64H128.441V68.2317H130.678V68.8363H127.837ZM129.046 67.6272V64H129.65V67.0227H130.678V67.6272H129.046ZM130.434 67.6272V67.0227H134.303V67.6272H130.434ZM130.434 68.8363V68.2317H134.303V68.8363H130.434ZM134.059 67.6272V67.0227H137.928V67.6272H134.059ZM134.059 68.8363V68.2317H137.928V68.8363H134.059ZM137.744 71.9798V64H141.492V71.9798H137.744ZM141.369 71.9798V64H145.117V71.9798H141.369ZM145.961 71.9798V67.0227H148.802V67.6272H146.566V71.9798H145.961ZM147.17 71.9798V68.2317H148.802V68.8363H147.775V71.9798H147.17ZM148.558 67.6272V67.0227H152.427V67.6272H148.558ZM148.558 68.8363V68.2317H152.427V68.8363H148.558ZM152.183 67.6272V67.0227H156.052V67.6272H152.183ZM152.183 68.8363V68.2317H156.052V68.8363H152.183ZM155.808 68.8363V68.2317H158.045V64H158.649V68.8363H155.808ZM155.808 67.6272V67.0227H156.835V64H157.44V67.6272H155.808ZM159.493 71.9798V64H163.241V71.9798H159.493ZM163.118 71.9798V64H166.866V71.9798H163.118ZM168.919 71.9798V64H169.524V71.9798H168.919ZM167.71 71.9798V64H168.315V71.9798H167.71ZM177.617 71.9798V64H181.365V71.9798H177.617ZM181.242 71.9798V64H184.99V71.9798H181.242ZM187.043 71.9798V64H187.648V71.9798H187.043ZM185.834 71.9798V64H186.439V71.9798H185.834ZM28.9987 79.9798V72H32.7469V79.9798H28.9987ZM32.6236 79.9798V72H36.3717V79.9798H32.6236ZM36.2484 79.9798V72H39.9965V79.9798H36.2484ZM40.8405 79.9798V75.0227H43.6818V75.6272H41.4451V79.9798H40.8405ZM42.0496 79.9798V76.2317H43.6818V76.8363H42.6541V79.9798H42.0496ZM43.4377 76.8363V76.2317H45.6744V72H46.279V76.8363H43.4377ZM43.4377 75.6272V75.0227H44.4654V72H45.0699V75.6272H43.4377ZM50.7478 79.9798V72H54.4959V79.9798H50.7478ZM54.3726 79.9798V72H58.1207V79.9798H54.3726ZM57.9975 79.9798V72H61.7456V79.9798H57.9975ZM61.6223 79.9798V72H65.3704V79.9798H61.6223ZM65.2472 79.9798V72H68.9953V79.9798H65.2472ZM71.0483 79.9798V75.6272H68.8116V75.0227H71.6529V79.9798H71.0483ZM69.8393 79.9798V76.8363H68.8116V76.2317H70.4438V79.9798H69.8393ZM79.7465 79.9798V72H83.4946V79.9798H79.7465ZM83.3714 79.9798V72H87.1195V79.9798H83.3714ZM87.9635 79.9798V75.0227H90.8048V75.6272H88.568V79.9798H87.9635ZM89.1725 79.9798V76.2317H90.8048V76.8363H89.7771V79.9798H89.1725ZM90.6211 79.9798V72H94.3692V79.9798H90.6211ZM94.2459 79.9798V72H97.994V79.9798H94.2459ZM100.047 79.9798V75.6272H97.8103V75.0227H100.652V79.9798H100.047ZM98.838 79.9798V76.8363H97.8103V76.2317H99.4425V79.9798H98.838ZM105.12 79.9798V72H108.869V79.9798H105.12ZM108.745 79.9798V72H112.493V79.9798H108.745ZM114.546 79.9798V72H115.151V79.9798H114.546ZM113.337 79.9798V72H113.942V79.9798H113.337ZM115.995 79.9798V72H119.743V79.9798H115.995ZM119.62 79.9798V72H123.368V79.9798H119.62ZM125.421 79.9798V72H126.026V79.9798H125.421ZM124.212 79.9798V72H124.816V79.9798H124.212ZM137.744 79.9798V72H141.492V79.9798H137.744ZM141.369 79.9798V72H145.117V79.9798H141.369ZM147.17 79.9798V72H147.775V79.9798H147.17ZM145.961 79.9798V72H146.566V79.9798H145.961ZM159.493 79.9798V72H163.241V79.9798H159.493ZM163.118 79.9798V72H166.866V79.9798H163.118ZM166.743 79.9798V72H170.491V79.9798H166.743ZM170.368 79.9798V72H174.116V79.9798H170.368ZM173.992 79.9798V72H177.741V79.9798H173.992ZM177.617 79.9798V72H181.365V79.9798H177.617ZM181.242 79.9798V72H184.99V79.9798H181.242ZM187.043 79.9798V72H187.648V79.9798H187.043ZM185.834 79.9798V72H186.439V79.9798H185.834ZM25.3739 87.9798V80H29.122V87.9798H25.3739ZM28.9987 87.9798V80H32.7469V87.9798H28.9987ZM32.6236 87.9798V80H36.3717V87.9798H32.6236ZM37.2157 87.9798V83.0227H40.057V83.6272H37.8202V87.9798H37.2157ZM38.4248 87.9798V84.2317H40.057V84.8363H39.0293V87.9798H38.4248ZM39.8128 84.8363V84.2317H42.0496V80H42.6541V84.8363H39.8128ZM39.8128 83.6272V83.0227H40.8405V80H41.4451V83.6272H39.8128ZM50.7478 87.9798V80H54.4959V87.9798H50.7478ZM54.3726 87.9798V80H58.1207V87.9798H54.3726ZM58.9647 87.9798V83.0227H61.806V83.6272H59.5693V87.9798H58.9647ZM60.1738 87.9798V84.2317H61.806V84.8363H60.7783V87.9798H60.1738ZM61.5619 83.6272V83.0227H65.4309V83.6272H61.5619ZM61.5619 84.8363V84.2317H65.4309V84.8363H61.5619ZM65.1867 83.6272V83.0227H69.0557V83.6272H65.1867ZM65.1867 84.8363V84.2317H69.0557V84.8363H65.1867ZM68.8116 84.8363V84.2317H71.0483V80H71.6529V84.8363H68.8116ZM68.8116 83.6272V83.0227H69.8393V80H70.4438V83.6272H68.8116ZM79.7465 87.9798V80H83.4946V87.9798H79.7465ZM83.3714 87.9798V80H87.1195V87.9798H83.3714ZM89.1725 87.9798V80H89.7771V87.9798H89.1725ZM87.9635 87.9798V80H88.568V87.9798H87.9635ZM91.5883 84.8363V80H92.1929V84.2317H94.4296V84.8363H91.5883ZM92.7974 83.6272V80H93.4019V83.0227H94.4296V83.6272H92.7974ZM94.2459 87.9798V80H97.994V87.9798H94.2459ZM97.8708 87.9798V80H101.619V87.9798H97.8708ZM103.672 87.9798V83.6272H101.435V83.0227H104.276V87.9798H103.672ZM102.463 87.9798V84.8363H101.435V84.2317H103.067V87.9798H102.463ZM105.12 87.9798V80H108.869V87.9798H105.12ZM108.745 87.9798V80H112.493V87.9798H108.745ZM114.546 87.9798V80H115.151V87.9798H114.546ZM113.337 87.9798V80H113.942V87.9798H113.337ZM115.995 87.9798V80H119.743V87.9798H115.995ZM119.62 87.9798V80H123.368V87.9798H119.62ZM125.421 87.9798V80H126.026V87.9798H125.421ZM124.212 87.9798V80H124.816V87.9798H124.212ZM137.744 87.9798V80H141.492V87.9798H137.744ZM141.369 87.9798V80H145.117V87.9798H141.369ZM147.17 87.9798V80H147.775V87.9798H147.17ZM145.961 87.9798V80H146.566V87.9798H145.961ZM159.493 87.9798V80H163.241V87.9798H159.493ZM163.118 87.9798V80H166.866V87.9798H163.118ZM167.71 87.9798V83.0227H170.551V83.6272H168.315V87.9798H167.71ZM168.919 87.9798V84.2317H170.551V84.8363H169.524V87.9798H168.919ZM170.307 83.6272V83.0227H174.176V83.6272H170.307ZM170.307 84.8363V84.2317H174.176V84.8363H170.307ZM173.932 83.6272V83.0227H177.801V83.6272H173.932ZM173.932 84.8363V84.2317H177.801V84.8363H173.932ZM177.617 87.9798V80H181.365V87.9798H177.617ZM181.242 87.9798V80H184.99V87.9798H181.242ZM187.043 87.9798V80H187.648V87.9798H187.043ZM185.834 87.9798V80H186.439V87.9798H185.834ZM21.7491 95.9798V88H25.4972V95.9798H21.7491ZM25.3739 95.9798V88H29.122V95.9798H25.3739ZM28.9987 95.9798V88H32.7469V95.9798H28.9987ZM32.6236 95.9798V88H36.3717V95.9798H32.6236ZM36.2484 95.9798V88H39.9965V95.9798H36.2484ZM39.8733 95.9798V88H43.6214V95.9798H39.8733ZM43.4981 95.9798V88H47.2462V95.9798H43.4981ZM49.2993 95.9798V91.6272H47.0625V91.0227H49.9038V95.9798H49.2993ZM48.0902 95.9798V92.8363H47.0625V92.2317H48.6947V95.9798H48.0902ZM50.7478 95.9798V88H54.4959V95.9798H50.7478ZM54.3726 95.9798V88H58.1207V95.9798H54.3726ZM57.9975 95.9798V88H61.7456V95.9798H57.9975ZM61.6223 95.9798V88H65.3704V95.9798H61.6223ZM65.2472 95.9798V88H68.9953V95.9798H65.2472ZM68.872 95.9798V88H72.6201V95.9798H68.872ZM72.4969 95.9798V88H76.245V95.9798H72.4969ZM78.298 95.9798V91.6272H76.0612V91.0227H78.9026V95.9798H78.298ZM77.089 95.9798V92.8363H76.0612V92.2317H77.6935V95.9798H77.089ZM79.7465 95.9798V88H83.4946V95.9798H79.7465ZM83.3714 95.9798V88H87.1195V95.9798H83.3714ZM89.1725 95.9798V88H89.7771V95.9798H89.1725ZM87.9635 95.9798V88H88.568V95.9798H87.9635ZM95.2132 92.8363V88H95.8177V92.2317H98.0545V92.8363H95.2132ZM96.4222 91.6272V88H97.0268V91.0227H98.0545V91.6272H96.4222ZM97.8708 95.9798V88H101.619V95.9798H97.8708ZM101.496 95.9798V88H105.244V95.9798H101.496ZM105.12 95.9798V88H108.869V95.9798H105.12ZM108.745 95.9798V88H112.493V95.9798H108.745ZM114.546 95.9798V88H115.151V95.9798H114.546ZM113.337 95.9798V88H113.942V95.9798H113.337ZM115.995 95.9798V88H119.743V95.9798H115.995ZM119.62 95.9798V88H123.368V95.9798H119.62ZM125.421 95.9798V88H126.026V95.9798H125.421ZM124.212 95.9798V88H124.816V95.9798H124.212ZM137.744 95.9798V88H141.492V95.9798H137.744ZM141.369 95.9798V88H145.117V95.9798H141.369ZM147.17 95.9798V88H147.775V95.9798H147.17ZM145.961 95.9798V88H146.566V95.9798H145.961ZM159.493 95.9798V88H163.241V95.9798H159.493ZM163.118 95.9798V88H166.866V95.9798H163.118ZM168.919 95.9798V88H169.524V95.9798H168.919ZM167.71 95.9798V88H168.315V95.9798H167.71ZM177.617 95.9798V88H181.365V95.9798H177.617ZM181.242 95.9798V88H184.99V95.9798H181.242ZM187.043 95.9798V88H187.648V95.9798H187.043ZM185.834 95.9798V88H186.439V95.9798H185.834ZM22.7163 100.836V96H23.3208V100.232H25.5576V100.836H22.7163ZM23.9254 99.6272V96H24.5299V99.0227H25.5576V99.6272H23.9254ZM25.3134 99.6272V99.0227H29.1825V99.6272H25.3134ZM25.3134 100.836V100.232H29.1825V100.836H25.3134ZM28.9383 99.6272V99.0227H32.8073V99.6272H28.9383ZM28.9383 100.836V100.232H32.8073V100.836H28.9383ZM32.5631 99.6272V99.0227H36.4321V99.6272H32.5631ZM32.5631 100.836V100.232H36.4321V100.836H32.5631ZM36.188 99.6272V99.0227H40.057V99.6272H36.188ZM36.188 100.836V100.232H40.057V100.836H36.188ZM39.8128 99.6272V99.0227H43.6818V99.6272H39.8128ZM39.8128 100.836V100.232H43.6818V100.836H39.8128ZM43.4377 99.6272V99.0227H47.3067V99.6272H43.4377ZM43.4377 100.836V100.232H47.3067V100.836H43.4377ZM47.0625 100.836V100.232H49.2993V96H49.9038V100.836H47.0625ZM47.0625 99.6272V99.0227H48.0902V96H48.6947V99.6272H47.0625ZM51.715 100.836V96H52.3196V100.232H54.5564V100.836H51.715ZM52.9241 99.6272V96H53.5287V99.0227H54.5564V99.6272H52.9241ZM54.3122 99.6272V99.0227H58.1812V99.6272H54.3122ZM54.3122 100.836V100.232H58.1812V100.836H54.3122ZM57.937 99.6272V99.0227H61.806V99.6272H57.937ZM57.937 100.836V100.232H61.806V100.836H57.937ZM61.5619 99.6272V99.0227H65.4309V99.6272H61.5619ZM61.5619 100.836V100.232H65.4309V100.836H61.5619ZM65.1867 99.6272V99.0227H69.0557V99.6272H65.1867ZM65.1867 100.836V100.232H69.0557V100.836H65.1867ZM68.8116 99.6272V99.0227H72.6806V99.6272H68.8116ZM68.8116 100.836V100.232H72.6806V100.836H68.8116ZM72.4364 99.6272V99.0227H76.3054V99.6272H72.4364ZM72.4364 100.836V100.232H76.3054V100.836H72.4364ZM76.0612 100.836V100.232H78.298V96H78.9026V100.836H76.0612ZM76.0612 99.6272V99.0227H77.089V96H77.6935V99.6272H76.0612ZM80.7138 100.836V96H81.3183V100.232H83.5551V100.836H80.7138ZM81.9229 99.6272V96H82.5274V99.0227H83.5551V99.6272H81.9229ZM83.3109 99.6272V99.0227H87.1799V99.6272H83.3109ZM83.3109 100.836V100.232H87.1799V100.836H83.3109ZM86.9358 100.836V100.232H89.1725V96H89.7771V100.836H86.9358ZM86.9358 99.6272V99.0227H87.9635V96H88.568V99.6272H86.9358ZM98.838 100.836V96H99.4425V100.232H101.679V100.836H98.838ZM100.047 99.6272V96H100.652V99.0227H101.679V99.6272H100.047ZM101.435 99.6272V99.0227H105.304V99.6272H101.435ZM101.435 100.836V100.232H105.304V100.836H101.435ZM105.06 99.6272V99.0227H108.929V99.6272H105.06ZM105.06 100.836V100.232H108.929V100.836H105.06ZM108.685 99.6272V99.0227H112.554V99.6272H108.685ZM108.685 100.836V100.232H112.554V100.836H108.685ZM112.31 100.836V100.232H114.546V96H115.151V100.836H112.31ZM112.31 99.6272V99.0227H113.337V96H113.942V99.6272H112.31ZM116.962 100.836V96H117.567V100.232H119.804V100.836H116.962ZM118.171 99.6272V96H118.776V99.0227H119.804V99.6272H118.171ZM119.559 99.6272V99.0227H123.428V99.6272H119.559ZM119.559 100.836V100.232H123.428V100.836H119.559ZM123.184 100.836V100.232H125.421V96H126.026V100.836H123.184ZM123.184 99.6272V99.0227H124.212V96H124.816V99.6272H123.184ZM138.711 100.836V96H139.316V100.232H141.553V100.836H138.711ZM139.92 99.6272V96H140.525V99.0227H141.553V99.6272H139.92ZM141.308 99.6272V99.0227H145.177V99.6272H141.308ZM141.308 100.836V100.232H145.177V100.836H141.308ZM144.933 100.836V100.232H147.17V96H147.775V100.836H144.933ZM144.933 99.6272V99.0227H145.961V96H146.566V99.6272H144.933ZM160.46 100.836V96H161.065V100.232H163.302V100.836H160.46ZM161.669 99.6272V96H162.274V99.0227H163.302V99.6272H161.669ZM163.057 99.6272V99.0227H166.926V99.6272H163.057ZM163.057 100.836V100.232H166.926V100.836H163.057ZM166.682 100.836V100.232H168.919V96H169.524V100.836H166.682ZM166.682 99.6272V99.0227H167.71V96H168.315V99.6272H166.682ZM178.585 100.836V96H179.189V100.232H181.426V100.836H178.585ZM179.794 99.6272V96H180.398V99.0227H181.426V99.6272H179.794ZM181.182 99.6272V99.0227H185.051V99.6272H181.182ZM181.182 100.836V100.232H185.051V100.836H181.182ZM184.807 100.836V100.232H187.043V96H187.648V100.836H184.807ZM184.807 99.6272V99.0227H185.834V96H186.439V99.6272H184.807Z" fill="white"/>
</svg>
